<?xml version="1.0" encoding="UTF-8"?>
<svg xmlns="http://www.w3.org/2000/svg" xmlns:xlink="http://www.w3.org/1999/xlink" width="298px" height="55px" viewBox="0 0 302 55" version="1.1">
<g id="surface1">
<path style=" stroke:none;fill-rule:nonzero;fill:rgb(6.27451%,12.156863%,22.352941%);fill-opacity:1;" d="M 78.488281 10.433594 L 78.488281 23.59375 C 76.632812 21.804688 74.117188 20.703125 71.339844 20.703125 C 65.65625 20.703125 61.046875 25.320312 61.046875 31.015625 C 61.046875 36.710938 65.65625 41.328125 71.339844 41.328125 C 76.789062 41.328125 81.25 37.082031 81.609375 31.714844 L 81.636719 31.75 L 81.636719 10.433594 Z M 71.339844 38.171875 C 67.394531 38.171875 64.195312 34.96875 64.195312 31.015625 C 64.195312 27.058594 67.394531 23.855469 71.339844 23.855469 C 75.289062 23.855469 78.488281 27.058594 78.488281 31.015625 C 78.488281 34.96875 75.289062 38.171875 71.339844 38.171875 Z M 71.339844 38.171875 "/>
<path style=" stroke:none;fill-rule:nonzero;fill:rgb(6.27451%,12.156863%,22.352941%);fill-opacity:1;" d="M 142.71875 20.703125 C 137.269531 20.703125 132.8125 24.945312 132.453125 30.3125 L 132.425781 30.277344 L 132.425781 48.019531 L 135.574219 48.019531 L 135.574219 38.433594 C 137.425781 40.222656 139.945312 41.328125 142.71875 41.328125 C 148.40625 41.328125 153.015625 36.710938 153.015625 31.015625 C 153.015625 25.320312 148.40625 20.703125 142.71875 20.703125 Z M 142.71875 38.171875 C 138.773438 38.171875 135.574219 34.96875 135.574219 31.015625 C 135.574219 27.058594 138.773438 23.855469 142.71875 23.855469 C 146.667969 23.855469 149.867188 27.058594 149.867188 31.015625 C 149.867188 34.96875 146.664062 38.171875 142.71875 38.171875 Z M 142.71875 38.171875 "/>
<path style=" stroke:none;fill-rule:nonzero;fill:rgb(6.27451%,12.156863%,22.352941%);fill-opacity:1;" d="M 95.585938 20.730469 C 89.917969 20.730469 85.320312 25.335938 85.320312 31.015625 C 85.320312 36.691406 89.917969 41.296875 95.585938 41.296875 C 98.726562 41.296875 101.539062 39.882812 103.417969 37.65625 L 101.546875 35.496094 C 100.1875 37.304688 98.023438 38.476562 95.585938 38.476562 C 91.792969 38.476562 88.660156 35.636719 88.195312 31.964844 L 104.980469 31.964844 C 105.007812 31.648438 105.027344 31.332031 105.027344 31.015625 C 105.027344 25.335938 101.253906 20.730469 95.585938 20.730469 Z M 88.355469 29.214844 C 89.160156 25.960938 92.089844 23.550781 95.589844 23.550781 C 99.085938 23.550781 101.195312 25.960938 101.996094 29.214844 Z M 88.355469 29.214844 "/>
<path style=" stroke:none;fill-rule:nonzero;fill:rgb(6.27451%,12.156863%,22.352941%);fill-opacity:1;" d="M 118.769531 20.730469 C 113.097656 20.730469 108.503906 25.335938 108.503906 31.015625 C 108.503906 36.691406 113.097656 41.296875 118.769531 41.296875 C 121.910156 41.296875 124.71875 39.882812 126.601562 37.65625 L 124.730469 35.496094 C 123.371094 37.304688 121.207031 38.476562 118.769531 38.476562 C 114.972656 38.476562 111.84375 35.636719 111.378906 31.964844 L 128.164062 31.964844 C 128.191406 31.648438 128.210938 31.332031 128.210938 31.015625 C 128.210938 25.335938 124.4375 20.730469 118.769531 20.730469 Z M 111.535156 29.214844 C 112.339844 25.960938 115.273438 23.550781 118.769531 23.550781 C 122.269531 23.550781 124.378906 25.960938 125.179688 29.214844 Z M 111.535156 29.214844 "/>
<path style=" stroke:none;fill-rule:nonzero;fill:rgb(6.27451%,12.156863%,22.352941%);fill-opacity:1;" d="M 196.222656 28.757812 L 196.222656 41.085938 L 195.011719 41.085938 L 195.011719 28.757812 C 195.011719 26.871094 194.480469 25.347656 193.417969 24.1875 C 192.355469 23.03125 190.933594 22.449219 189.160156 22.449219 C 187.328125 22.449219 185.824219 23.046875 184.640625 24.230469 C 183.457031 25.414062 182.863281 26.925781 182.863281 28.757812 L 182.863281 41.085938 L 181.652344 41.085938 L 181.652344 10.769531 L 182.863281 10.769531 L 182.863281 24.796875 C 184.179688 22.449219 186.296875 21.28125 189.199219 21.28125 C 191.351562 21.28125 193.058594 21.96875 194.324219 23.34375 C 195.589844 24.714844 196.222656 26.519531 196.222656 28.757812 Z M 196.222656 28.757812 "/>
<path style=" stroke:none;fill-rule:nonzero;fill:rgb(6.27451%,12.156863%,22.352941%);fill-opacity:1;" d="M 245.660156 41.085938 L 245.660156 10.769531 L 246.871094 10.769531 L 246.871094 41.085938 Z M 249.292969 30.210938 L 259.542969 41.085938 L 257.929688 41.085938 L 247.636719 30.171875 L 256.878906 21.679688 L 258.613281 21.679688 Z M 249.292969 30.210938 "/>
<path style=" stroke:none;fill-rule:nonzero;fill:rgb(6.27451%,12.156863%,22.352941%);fill-opacity:1;" d="M 261.761719 36.878906 L 262.730469 36.148438 C 264.507812 38.679688 266.632812 39.949219 269.109375 39.949219 C 270.535156 39.949219 271.699219 39.605469 272.597656 38.917969 C 273.5 38.230469 273.949219 37.269531 273.949219 36.027344 C 273.871094 34.871094 273.519531 34.007812 272.902344 33.441406 C 272.28125 32.875 271.164062 32.226562 269.550781 31.5 L 267.859375 30.730469 C 266.214844 30.003906 265.019531 29.277344 264.265625 28.546875 C 263.515625 27.820312 263.136719 26.875 263.136719 25.71875 C 263.136719 24.234375 263.714844 23.078125 264.871094 22.242188 C 266.027344 21.355469 267.414062 20.910156 269.027344 20.910156 C 271.421875 20.910156 273.453125 21.945312 275.121094 24.019531 L 274.234375 24.828125 C 272.699219 23 270.9375 22.078125 268.949219 22.078125 C 267.65625 22.078125 266.582031 22.394531 265.71875 23.027344 C 264.855469 23.660156 264.429688 24.542969 264.429688 25.675781 C 264.457031 26.136719 264.542969 26.53125 264.691406 26.871094 C 264.839844 27.207031 264.964844 27.46875 265.078125 27.660156 C 265.183594 27.847656 265.472656 28.082031 265.945312 28.367188 C 266.414062 28.648438 266.75 28.839844 266.953125 28.933594 C 267.15625 29.027344 267.671875 29.277344 268.503906 29.679688 L 270.320312 30.488281 C 271.988281 31.21875 273.226562 31.984375 274.03125 32.792969 C 274.839844 33.601562 275.242188 34.652344 275.242188 35.949219 C 275.242188 37.566406 274.636719 38.832031 273.425781 39.75 C 272.242188 40.664062 270.777344 41.125 269.027344 41.125 C 266.011719 41.121094 263.589844 39.707031 261.761719 36.878906 Z M 261.761719 36.878906 "/>
<path style=" stroke:none;fill-rule:nonzero;fill:rgb(6.27451%,12.156863%,22.352941%);fill-opacity:1;" d="M 176.136719 36.722656 C 174.503906 38.679688 172.050781 39.925781 169.300781 39.925781 C 164.386719 39.925781 160.402344 35.9375 160.402344 31.015625 C 160.402344 26.09375 164.386719 22.101562 169.300781 22.101562 C 172.03125 22.101562 174.476562 23.335938 176.109375 25.277344 L 176.992188 24.53125 C 175.148438 22.339844 172.390625 20.945312 169.304688 20.945312 C 163.75 20.945312 159.25 25.457031 159.25 31.015625 C 159.25 36.582031 163.753906 41.085938 169.304688 41.085938 C 172.414062 41.085938 175.195312 39.671875 177.039062 37.449219 Z M 176.136719 36.722656 "/>
<path style=" stroke:none;fill-rule:nonzero;fill:rgb(6.27451%,12.156863%,22.352941%);fill-opacity:1;" d="M 240.078125 36.722656 C 238.441406 38.679688 235.988281 39.925781 233.238281 39.925781 C 228.324219 39.925781 224.34375 35.9375 224.34375 31.015625 C 224.34375 26.09375 228.324219 22.101562 233.238281 22.101562 C 235.972656 22.101562 238.414062 23.335938 240.046875 25.277344 L 240.933594 24.53125 C 239.089844 22.339844 236.328125 20.945312 233.242188 20.945312 C 227.6875 20.945312 223.1875 25.457031 223.1875 31.015625 C 223.1875 36.582031 227.691406 41.085938 233.242188 41.085938 C 236.351562 41.085938 239.132812 39.671875 240.976562 37.449219 Z M 240.078125 36.722656 "/>
<path style=" stroke:none;fill-rule:nonzero;fill:rgb(6.27451%,12.156863%,22.352941%);fill-opacity:1;" d="M 210.484375 20.945312 C 204.929688 20.945312 200.429688 25.453125 200.429688 31.015625 C 200.429688 36.574219 204.933594 41.085938 210.484375 41.085938 C 213.605469 41.085938 216.398438 39.65625 218.246094 37.417969 L 217.359375 36.628906 C 215.730469 38.625 213.257812 39.902344 210.484375 39.902344 C 205.582031 39.902344 201.609375 35.921875 201.609375 31.015625 L 219.4375 31.015625 C 219.4375 25.453125 216.035156 20.945312 210.484375 20.945312 Z M 201.679688 29.902344 C 202.226562 25.515625 205.957031 22.125 210.484375 22.125 C 215.007812 22.125 217.640625 25.515625 218.1875 29.902344 Z M 201.679688 29.902344 "/>
<path style=" stroke:none;fill-rule:nonzero;fill:rgb(0%,90.196078%,100%);fill-opacity:1;" d="M 24.867188 25.796875 L 24.894531 25.832031 C 25.253906 20.464844 29.714844 16.222656 35.164062 16.222656 C 35.167969 16.222656 35.167969 16.222656 35.167969 16.222656 C 35.171875 16.222656 35.175781 16.222656 35.175781 16.222656 C 37.949219 16.222656 40.472656 17.324219 42.320312 19.117188 L 42.320312 8.339844 C 40.109375 7.464844 37.699219 6.980469 35.175781 6.980469 C 24.394531 6.980469 15.65625 15.734375 15.65625 26.53125 C 15.65625 33.539062 19.335938 39.683594 24.867188 43.132812 Z M 24.867188 25.796875 "/>
<path style=" stroke:none;fill-rule:nonzero;fill:rgb(0%,47.843137%,100%);fill-opacity:1;" d="M 45.46875 9.921875 L 45.46875 27.273438 L 45.441406 27.234375 C 45.082031 32.605469 40.625 36.847656 35.175781 36.847656 C 35.171875 36.847656 35.167969 36.847656 35.167969 36.847656 C 35.167969 36.847656 35.164062 36.847656 35.164062 36.847656 C 32.386719 36.847656 29.867188 35.746094 28.015625 33.953125 L 28.015625 44.726562 C 30.234375 45.601562 32.648438 46.089844 35.175781 46.089844 C 45.957031 46.089844 54.699219 37.335938 54.699219 26.539062 C 54.699219 19.519531 51.007812 13.375 45.46875 9.921875 Z M 45.46875 9.921875 "/>
<path style=" stroke:none;fill-rule:nonzero;fill:rgb(61.568627%,37.647059%,98.431373%);fill-opacity:1;" d="M 41.136719 22.582031 C 41.070312 22.914062 40.957031 23.242188 40.777344 23.546875 C 39.925781 25.03125 38.035156 25.535156 36.554688 24.679688 C 35.074219 23.824219 34.570312 21.933594 35.425781 20.453125 C 35.65625 20.046875 35.972656 19.71875 36.328125 19.46875 C 35.953125 19.40625 35.570312 19.375 35.175781 19.375 C 31.230469 19.375 28.03125 22.578125 28.03125 26.53125 C 28.03125 30.488281 31.230469 33.691406 35.175781 33.691406 C 39.125 33.691406 42.324219 30.488281 42.324219 26.53125 C 42.324219 25.070312 41.882812 23.714844 41.136719 22.582031 Z M 41.136719 22.582031 "/>
<path style=" stroke:none;fill-rule:nonzero;fill:rgb(61.568627%,37.647059%,98.431373%);fill-opacity:1;" d="M 286.34375 38.023438 C 286.34375 39.734375 284.960938 41.121094 283.253906 41.121094 C 281.546875 41.121094 280.164062 39.734375 280.164062 38.023438 C 280.164062 36.3125 281.546875 34.929688 283.253906 34.929688 C 284.960938 34.929688 286.34375 36.3125 286.34375 38.023438 Z M 286.34375 38.023438 "/>
</g>
</svg>
